<svg xmlns="http://www.w3.org/2000/svg" xmlns:xlink="http://www.w3.org/1999/xlink" width="64" height="64"><defs><path id="a" d="M15.464.433H.779v16.664h14.685V.433z"/><path id="c" d="M63.893 50.803H0V.443h63.893v50.36z"/></defs><g fill="none" fill-rule="evenodd"><path fill="#9AA63C" d="M31.948 17.248a3.328 3.328 0 0 1-3.23-4.128c.415-1.68 2.78-10.038 8.749-10.038h.049a3.328 3.328 0 0 1 3.299 3.357 3.33 3.33 0 0 1-3.194 3.303c-.732.474-1.92 2.878-2.448 4.983a3.33 3.33 0 0 1-3.225 2.523"/><g transform="translate(26.597 1.4)"><mask id="b" fill="#fff"><use xlink:href="#a"/></mask><path fill="#2E2E30" d="M10.91 2.931c-5.188 0-7.348 8.159-7.577 9.088a2.085 2.085 0 0 0 1.514 2.518 2.106 2.106 0 0 0 2.519-1.517c.46-1.828 1.724-4.913 2.981-5.727.189-.122.406-.19.63-.2A2.076 2.076 0 0 0 12.97 5.03a2.082 2.082 0 0 0-2.06-2.098M5.35 17.097c-.373 0-.745-.046-1.108-.137a4.587 4.587 0 0 1-3.33-5.54C1.365 9.584 3.97.432 10.869.432c2.58.018 4.614 2.09 4.595 4.615a4.569 4.569 0 0 1-3.906 4.498c-.438.56-1.316 2.256-1.773 4.084a4.569 4.569 0 0 1-4.434 3.467" mask="url(#b)"/></g><path fill="#010202" d="M38.312 3.195a3.324 3.324 0 0 1-3.184 3.216c-.733.474-1.92 2.878-2.449 4.983a3.33 3.33 0 0 1-4.03 2.423l-.024-.009a3.329 3.329 0 0 0 3.323 3.44 3.33 3.33 0 0 0 3.224-2.523c.53-2.104 1.717-4.509 2.45-4.983a3.328 3.328 0 0 0 .69-6.547" opacity=".3"/><path fill="#F27721" d="M53.4 21.93c-.375 0-.722.073-1.056.18-2.548-3.944-5.859-6.396-8.814-6.396-1.522 0-2.797.655-3.853 1.824-2.154-2.859-4.83-4.451-7.73-4.451-2.9 0-5.577 1.592-7.73 4.45-1.057-1.168-2.332-1.823-3.854-1.823-2.955 0-6.265 2.452-8.814 6.397a3.412 3.412 0 0 0-1.056-.182c-4.132 0-9.247 6.755-9.247 15.089 0 8.332 5.115 15.087 9.247 15.087.376 0 .722-.074 1.056-.181 2.549 3.945 5.86 6.396 8.814 6.396 1.522 0 2.797-.655 3.853-1.823 2.154 2.858 4.83 4.45 7.731 4.45 2.9 0 5.576-1.592 7.73-4.45 1.056 1.168 2.331 1.823 3.853 1.823 2.955 0 6.266-2.451 8.814-6.396.334.107.68.181 1.056.181 4.132 0 9.247-6.755 9.247-15.087 0-8.334-5.115-15.089-9.247-15.089"/><g transform="translate(0 11.394)"><mask id="d" fill="#fff"><use xlink:href="#c"/></mask><path fill="#2E2E30" d="M24.217 43.853a1.24 1.24 0 0 1 .995.497c1.95 2.587 4.278 3.955 6.735 3.955 2.456 0 4.785-1.368 6.735-3.955.224-.298.568-.48.94-.495.347-.021.73.133.98.409.858.95 1.816 1.412 2.928 1.412 2.47 0 5.446-2.232 7.768-5.826a1.244 1.244 0 0 1 1.43-.51c.255.084.469.122.672.122 3.147 0 8-5.943 8-13.84 0-7.896-4.853-13.838-8-13.838-.203 0-.417.038-.674.122a1.242 1.242 0 0 1-1.428-.51C48.976 7.801 46 5.568 43.53 5.568c-1.112 0-2.07.463-2.928 1.414-.25.275-.631.425-.98.409a1.247 1.247 0 0 1-.94-.496c-1.95-2.587-4.279-3.954-6.735-3.954-2.457 0-4.785 1.367-6.735 3.954a1.244 1.244 0 0 1-1.919.087c-.86-.951-1.818-1.414-2.93-1.414-2.469 0-5.445 2.233-7.767 5.826a1.244 1.244 0 0 1-1.428.51 2.176 2.176 0 0 0-.676-.121c-3.146 0-7.999 5.942-7.999 13.838 0 7.897 4.853 13.84 8 13.84.203 0 .417-.038.673-.121a1.244 1.244 0 0 1 1.43.509c2.322 3.594 5.298 5.826 7.767 5.826 1.112 0 2.07-.461 2.93-1.412.237-.262.572-.41.924-.41m7.73 6.95c-2.893 0-5.588-1.34-7.858-3.89a6.02 6.02 0 0 1-3.726 1.26c-3.166 0-6.626-2.318-9.374-6.244-.167.02-.332.03-.497.03C5.64 41.96 0 34.824 0 25.623c0-9.2 5.64-16.336 10.492-16.336.165 0 .33.01.497.03 2.747-3.926 6.208-6.245 9.374-6.245a6.02 6.02 0 0 1 3.726 1.262c2.27-2.551 4.965-3.89 7.858-3.89 2.891 0 5.586 1.339 7.858 3.889A6.02 6.02 0 0 1 43.53 3.07c3.167 0 6.627 2.318 9.375 6.244.167-.02.331-.03.495-.03 4.852 0 10.493 7.136 10.493 16.337S58.253 41.961 53.4 41.961c-.164 0-.328-.01-.495-.03-2.748 3.925-6.209 6.244-9.375 6.244a6.02 6.02 0 0 1-3.725-1.26c-2.272 2.549-4.967 3.888-7.858 3.888" mask="url(#d)"/></g><path fill="#010202" d="M59.163 25.775c.616 1.904.99 4.015.99 6.245 0 8.333-5.114 15.088-9.246 15.088-.376 0-.722-.074-1.056-.181-2.549 3.945-5.86 6.396-8.814 6.396-1.522 0-2.797-.655-3.853-1.824-2.154 2.858-4.83 4.452-7.731 4.452-2.9 0-5.577-1.594-7.73-4.452-1.056 1.17-2.331 1.824-3.853 1.824-2.955 0-6.266-2.451-8.814-6.396-.334.107-.68.181-1.056.181-1.914 0-4.033-1.461-5.763-3.845 1.686 5.212 5.23 8.842 8.256 8.842.376 0 .722-.074 1.056-.181 2.549 3.945 5.86 6.396 8.814 6.396 1.522 0 2.797-.655 3.853-1.824 2.154 2.858 4.83 4.452 7.73 4.452 2.901 0 5.577-1.594 7.731-4.452 1.056 1.17 2.331 1.824 3.853 1.824 2.955 0 6.266-2.451 8.814-6.396.334.107.68.181 1.056.181 4.132 0 9.247-6.755 9.247-15.088 0-4.473-1.48-8.48-3.484-11.242" opacity=".3"/><path fill="#FEFEFE" d="M9.424 26.644s1.137-3.737 4.422-7.474"/><path fill="#2E2E30" d="M9.425 27.893a1.248 1.248 0 0 1-1.193-1.613c.05-.164 1.255-4.04 4.678-7.935a1.247 1.247 0 0 1 1.76-.113c.518.457.567 1.246.112 1.764-3.071 3.494-4.155 6.978-4.165 7.013a1.248 1.248 0 0 1-1.192.884"/><path fill="#FEFEFE" d="M24.217 17.538s-1.588 2.712-2.712 6.391"/><path fill="#2E2E30" d="M21.506 25.178a1.252 1.252 0 0 1-1.194-1.615c1.155-3.775 2.761-6.542 2.83-6.657a1.248 1.248 0 1 1 2.15 1.263c-.014.026-1.53 2.644-2.594 6.126a1.248 1.248 0 0 1-1.192.883"/><path fill="#FEFEFE" d="M54.47 26.644s-1.138-3.737-4.423-7.474"/><path fill="#2E2E30" d="M54.468 27.893a1.248 1.248 0 0 1-1.192-.884c-.017-.059-1.126-3.557-4.165-7.013a1.247 1.247 0 1 1 1.872-1.652c3.424 3.896 4.629 7.772 4.679 7.936a1.25 1.25 0 0 1-1.194 1.613"/><path fill="#FEFEFE" d="M39.677 17.538s1.587 2.712 2.711 6.391"/><path fill="#2E2E30" d="M42.388 25.178a1.248 1.248 0 0 1-1.192-.883c-1.069-3.498-2.58-6.1-2.595-6.125a1.251 1.251 0 0 1 .445-1.71 1.246 1.246 0 0 1 1.706.446c.068.115 1.675 2.882 2.83 6.657a1.252 1.252 0 0 1-1.194 1.615"/><path fill="#86391C" d="m15.393 28.34 11.01 2.487s-5.55 11.905-11.01-2.487"/><path fill="#2E2E30" d="M17.488 30.094c1.646 3.458 3.02 4.08 3.753 4.108l.06.001c1.193 0 2.389-1.35 3.179-2.53l-6.992-1.58Zm3.817 6.608c-.052 0-.103-.001-.154-.003-2.677-.1-4.94-2.688-6.924-7.915a1.252 1.252 0 0 1 .225-1.264c.3-.347.768-.503 1.216-.399l11.01 2.488a1.248 1.248 0 0 1 .855 1.747c-.258.554-2.598 5.346-6.228 5.346Z"/><path fill="#86391C" d="m48.5 28.34-11.01 2.487s5.55 11.905 11.01-2.487"/><path fill="#2E2E30" d="M39.414 31.673c.79 1.18 1.986 2.53 3.178 2.53l.06-.001c.734-.029 2.108-.65 3.754-4.108l-6.992 1.58Zm3.175 5.028c-3.63 0-5.97-4.791-6.229-5.345a1.254 1.254 0 0 1 .856-1.747l11.01-2.488a1.25 1.25 0 0 1 1.44 1.662c-1.983 5.228-4.247 7.817-6.923 7.916a4.734 4.734 0 0 1-.154.002Z"/><path fill="#86391C" d="m44.712 41.96-2.49-2.501-2.336 2.75-3.75-2.246-3.757 3.11-3.757-3.11-3.75 2.246-2.336-2.75-2.49 2.502s-3.196-1.666-7.546-4.873c0 0 2.578 7.5 8.026 10.399l1.7-1.994s.634 2.382 3.465 3.454l1.209.305 1.275-3.334 4.204 3.334 4.204-3.334 1.275 3.334 1.21-.305c2.83-1.072 3.464-3.454 3.464-3.454l1.7 1.994c5.448-2.899 8.026-10.4 8.026-10.4-4.351 3.208-7.546 4.874-7.546 4.874"/><path fill="#2E2E30" d="M36.583 44.668a1.246 1.246 0 0 1 1.164.803l.88 2.3.063-.017c2.102-.827 2.62-2.525 2.641-2.598a1.253 1.253 0 0 1 2.149-.476l1.016 1.194c1.96-1.309 3.48-3.276 4.563-5.057-2.242 1.45-3.682 2.206-3.771 2.252-.48.25-1.073.162-1.46-.225L42.296 41.3l-1.46 1.718a1.244 1.244 0 0 1-1.588.262l-2.995-1.793-3.08 2.547a1.242 1.242 0 0 1-1.587 0l-3.079-2.547-2.994 1.793a1.244 1.244 0 0 1-1.59-.262L22.464 41.3l-1.535 1.543a1.247 1.247 0 0 1-1.458.225c-.09-.046-1.53-.802-3.772-2.252 1.084 1.781 2.604 3.748 4.562 5.057l1.018-1.193a1.244 1.244 0 0 1 2.152.49c.018.059.534 1.757 2.638 2.583l.063.017.88-2.3a1.246 1.246 0 0 1 1.937-.534l3.43 2.722 3.43-2.722c.223-.177.496-.27.774-.27m1.274 5.835c-.505 0-.975-.31-1.163-.803l-.668-1.747-2.873 2.28a1.248 1.248 0 0 1-1.548 0l-2.873-2.28-.668 1.747c-.226.591-.86.915-1.469.765l-1.209-.305a1.616 1.616 0 0 1-.136-.043c-1.595-.605-2.618-1.566-3.258-2.426l-.518.608a1.241 1.241 0 0 1-1.532.292c-5.816-3.094-8.509-10.77-8.62-11.096a1.246 1.246 0 0 1 1.918-1.413c2.96 2.185 5.394 3.649 6.587 4.332l1.826-1.836c.246-.247.575-.388.933-.366.348.014.675.173.9.439l1.65 1.944 2.846-1.704a1.246 1.246 0 0 1 1.434.11l2.963 2.453 2.964-2.454c.406-.337.98-.38 1.433-.109l2.845 1.704 1.651-1.944c.226-.266.552-.425.9-.44a1.2 1.2 0 0 1 .933.367l1.826 1.836c1.193-.683 3.626-2.147 6.589-4.332a1.246 1.246 0 0 1 1.916 1.413c-.111.325-2.805 8.002-8.62 11.096a1.242 1.242 0 0 1-1.531-.292l-.52-.608c-.64.86-1.662 1.82-3.256 2.426-.045.017-.091.03-.138.043l-1.209.305a1.274 1.274 0 0 1-.305.038"/></g></svg>